<svg width="72.000000" height="72.000000" viewBox="0 0 72 72" fill="none" xmlns="http://www.w3.org/2000/svg" xmlns:xlink="http://www.w3.org/1999/xlink">
	<desc>
			Created with Pixso.
	</desc>
	<defs>
		<clipPath id="clip3_224">
			<rect id="004-stethoscope" rx="0.000000" width="31.000000" height="31.000000" transform="translate(20.500000 20.500000)" fill="white" fill-opacity="0"/>
		</clipPath>
		<clipPath id="clip3_223">
			<rect id="icon cool-icon-152" rx="0.000000" width="31.000000" height="31.000000" transform="translate(20.500000 20.500000)" fill="white" fill-opacity="0"/>
		</clipPath>
		<clipPath id="clip3_222">
			<rect id="circle sec-" rx="35.500000" width="71.000000" height="71.000000" transform="translate(0.500000 0.500000)" fill="white" fill-opacity="0"/>
		</clipPath>
	</defs>
	<rect id="circle sec-" rx="35.500000" width="71.000000" height="71.000000" transform="translate(0.500000 0.500000)" fill="#E74040" fill-opacity="1.000000"/>
	<g clip-path="url(#clip3_222)">
		<g clip-path="url(#clip3_223)">
			<rect id="004-stethoscope" rx="0.000000" width="31.000000" height="31.000000" transform="translate(20.500000 20.500000)" fill="#FFFFFF" fill-opacity="0"/>
			<g clip-path="url(#clip3_224)">
				<path id="Vector" d="M30.25 40.58L30.25 43.5C30.25 48.15 34.03 52 38.68 52C43.34 52 47.12 48.15 47.12 43.5L47.12 42.46C49.26 42.03 50.87 40.13 50.87 37.87C50.87 35.29 48.77 33.18 46.18 33.18C43.6 33.18 41.5 35.29 41.5 37.87C41.5 40.13 43.11 42.03 45.25 42.46L45.25 43.5C45.25 47.11 42.3 50.12 38.68 50.12C35.06 50.12 32.12 47.11 32.12 43.5L32.12 40.58C35.95 39.88 40.36 35.13 41.13 30.61C41.63 27.64 40.39 25.27 37.75 24.08L37.75 22.81C37.75 21.26 36.48 20 34.93 20C33.38 20 32.12 21.26 32.12 22.81C32.12 24.36 33.38 25.62 34.93 25.62L36.6 25.62C38.75 26.42 39.66 28.03 39.28 30.3C38.62 34.2 34.23 38.81 31.18 38.81C27.77 38.81 23.02 33.39 22.99 29.37C22.98 27.58 23.92 26.3 25.74 25.62L27.43 25.62C28.98 25.62 30.25 24.36 30.25 22.81C30.25 21.26 28.98 20 27.43 20C25.88 20 24.62 21.26 24.62 22.81L24.62 24.07C22.36 25.08 21.12 26.97 21.12 29.37C21.13 34.07 26 39.8 30.25 40.58ZM45.25 36.93L47.12 36.93L47.12 38.81L45.25 38.81L45.25 36.93Z" fill="#FFFFFF" fill-opacity="1.000000" fill-rule="nonzero"/>
			</g>
		</g>
	</g>
</svg>
