<svg width="72.000000" height="72.000000" viewBox="0 0 72 72" fill="none" xmlns="http://www.w3.org/2000/svg" xmlns:xlink="http://www.w3.org/1999/xlink">
	<desc>
			Created with Pixso.
	</desc>
	<defs>
		<clipPath id="clip3_213">
			<rect id="003-cardiogram" rx="0.000000" width="31.000000" height="31.000000" transform="translate(20.500000 20.500000)" fill="white" fill-opacity="0"/>
		</clipPath>
		<clipPath id="clip3_212">
			<rect id="icon cool-icon-15" rx="0.000000" width="31.000000" height="31.000000" transform="translate(20.500000 20.500000)" fill="white" fill-opacity="0"/>
		</clipPath>
		<clipPath id="clip3_211">
			<rect id="circle sec-" rx="35.500000" width="71.000000" height="71.000000" transform="translate(0.500000 0.500000)" fill="white" fill-opacity="0"/>
		</clipPath>
	</defs>
	<rect id="circle sec-" rx="35.500000" width="71.000000" height="71.000000" transform="translate(0.500000 0.500000)" fill="#E74040" fill-opacity="1.000000"/>
	<g clip-path="url(#clip3_211)">
		<g clip-path="url(#clip3_212)">
			<rect id="003-cardiogram" rx="0.000000" width="31.000000" height="31.000000" transform="translate(20.500000 20.500000)" fill="#FFFFFF" fill-opacity="0"/>
			<g clip-path="url(#clip3_213)">
				<path id="Vector" d="M35.99 24.21C29.01 18.11 20.14 23.47 20 30.74C19.96 32.59 20.49 34.4 21.56 36.06L28.46 36.06L29.68 34.01C30.04 33.42 30.9 33.4 31.28 33.99L33.87 38.06L37.64 30.1C37.97 29.4 38.95 29.38 39.31 30.05L42.55 36.06L50.41 36.06C56.24 26.95 44.72 16.57 35.99 24.21Z" fill="#FFFFFF" fill-opacity="1.000000" fill-rule="nonzero"/>
				<path id="Vector" d="M41.16 37.44L38.54 32.57L34.83 40.4C34.52 41.06 33.59 41.12 33.2 40.5L30.51 36.28L29.79 37.48C29.62 37.76 29.32 37.93 28.99 37.93L23.04 37.93C23.23 38.13 22.23 37.14 35.32 50.16C35.69 50.52 36.28 50.52 36.65 50.16C49.54 37.34 48.74 38.13 48.93 37.93L41.99 37.93C41.64 37.93 41.32 37.74 41.16 37.44Z" fill="#FFFFFF" fill-opacity="1.000000" fill-rule="nonzero"/>
			</g>
		</g>
	</g>
</svg>
