<svg width="72.000000" height="72.000000" viewBox="0 0 72 72" fill="none" xmlns="http://www.w3.org/2000/svg" xmlns:xlink="http://www.w3.org/1999/xlink">
	<desc>
			Created with Pixso.
	</desc>
	<defs>
		<clipPath id="clip3_234">
			<rect id="005-medical-history" rx="0.000000" width="31.000000" height="31.000000" transform="translate(20.500000 20.500000)" fill="white" fill-opacity="0"/>
		</clipPath>
		<clipPath id="clip3_233">
			<rect id="icon cool-icon-155" rx="0.000000" width="31.000000" height="31.000000" transform="translate(20.500000 20.500000)" fill="white" fill-opacity="0"/>
		</clipPath>
		<clipPath id="clip3_232">
			<rect id="circle sec-" rx="35.500000" width="71.000000" height="71.000000" transform="translate(0.500000 0.500000)" fill="white" fill-opacity="0"/>
		</clipPath>
	</defs>
	<rect id="circle sec-" rx="35.500000" width="71.000000" height="71.000000" transform="translate(0.500000 0.500000)" fill="#E74040" fill-opacity="1.000000"/>
	<g clip-path="url(#clip3_232)">
		<g clip-path="url(#clip3_233)">
			<rect id="005-medical-history" rx="0.000000" width="31.000000" height="31.000000" transform="translate(20.500000 20.500000)" fill="#FFFFFF" fill-opacity="0"/>
			<g clip-path="url(#clip3_234)">
				<path id="Vector" d="M26.34 52L45.65 52C46.8 52 47.75 51.12 47.75 50.04L47.75 26.62C47.75 25.54 46.8 24.66 45.65 24.66L42.46 24.66L42.46 26.44C42.47 26.75 42.22 27.01 41.91 27.02L30.04 27.02C29.72 27.01 29.47 26.76 29.46 26.44L29.46 24.66L26.34 24.66C25.19 24.66 24.24 25.54 24.24 26.62L24.24 50.04C24.24 51.12 25.19 52 26.34 52ZM30.64 34.05C30.64 33.74 30.89 33.49 31.2 33.49L34.05 33.49L34.05 30.64C34.05 30.33 34.3 30.08 34.6 30.08L37.39 30.08C37.69 30.08 37.94 30.33 37.94 30.64L37.94 33.49L40.8 33.49C41.1 33.49 41.35 33.74 41.35 34.05L41.35 36.83C41.35 37.14 41.1 37.39 40.8 37.39L37.94 37.39L37.94 40.24C37.94 40.55 37.69 40.8 37.39 40.8L34.6 40.8C34.3 40.8 34.05 40.55 34.05 40.24L34.05 37.39L31.2 37.39C30.89 37.39 30.64 37.14 30.64 36.83L30.64 34.05ZM30.87 43.65L41.12 43.65C41.43 43.65 41.68 43.9 41.68 44.2C41.68 44.51 41.43 44.76 41.12 44.76L30.87 44.76C30.56 44.76 30.31 44.51 30.31 44.2C30.31 43.9 30.56 43.65 30.87 43.65ZM28.78 46.43L43.21 46.43C43.52 46.43 43.77 46.68 43.77 46.99C43.77 47.29 43.52 47.54 43.21 47.54L28.78 47.54C28.47 47.54 28.22 47.29 28.22 46.99C28.22 46.68 28.47 46.43 28.78 46.43Z" fill="#FFFFFF" fill-opacity="1.000000" fill-rule="nonzero"/>
				<path id="Vector" d="M41.35 22.15L38.75 22.15C38.49 22.15 38.26 21.97 38.2 21.71C37.99 20.72 37.04 20 35.96 20L35.95 20C34.89 19.99 33.97 20.71 33.71 21.73C33.64 21.98 33.42 22.15 33.17 22.15L30.57 22.15L30.57 25.91L41.35 25.91L41.35 22.15Z" fill="#FFFFFF" fill-opacity="1.000000" fill-rule="nonzero"/>
				<path id="Vector" d="M35.16 36.83L35.16 39.68L36.83 39.68L36.83 36.83C36.83 36.52 37.08 36.27 37.39 36.27L40.24 36.27L40.24 34.6L37.39 34.6C37.08 34.6 36.83 34.35 36.83 34.05L36.83 31.2L35.16 31.2L35.16 34.05C35.16 34.35 34.91 34.6 34.6 34.6L31.75 34.6L31.75 36.27L34.6 36.27C34.91 36.27 35.16 36.52 35.16 36.83Z" fill="#FFFFFF" fill-opacity="1.000000" fill-rule="nonzero"/>
			</g>
		</g>
	</g>
</svg>
